<svg width="215" height="42" viewBox="0 0 215 42" fill="none" xmlns="http://www.w3.org/2000/svg">
<path d="M0 8C0 3.58172 3.58172 0 8 0H207C211.418 0 215 3.58172 215 8V34C215 38.4183 211.418 42 207 42H7.99999C3.58172 42 0 38.4183 0 34V8Z" fill="white"/>
<path d="M0.5 8C0.5 3.85786 3.85786 0.5 8 0.5H207C211.142 0.5 214.5 3.85786 214.5 8V34C214.5 38.1421 211.142 41.5 207 41.5H7.99999C3.85786 41.5 0.5 38.1421 0.5 34V8Z" stroke="#B1BACB" stroke-opacity="0.1"/>
<path d="M119.019 21.9138H109.619V18.3276C109.619 17.5523 109.744 16.9107 109.995 16.403C110.245 15.8953 110.59 15.5169 111.029 15.2676C111.468 15.0184 111.96 14.8938 112.506 14.8938C113.025 14.8938 113.504 15.0138 113.943 15.2538C114.373 15.4938 114.722 15.8676 114.99 16.3753C115.25 16.883 115.38 17.5338 115.38 18.3276V20.1415H119.019V21.9138ZM113.983 20.1415V18.4384C113.983 17.82 113.853 17.3769 113.594 17.1092C113.325 16.8323 112.963 16.6938 112.506 16.6938C112.04 16.6938 111.678 16.8323 111.418 17.1092C111.15 17.3769 111.015 17.82 111.015 18.4384V20.1415H113.983Z" fill="#2D70FD"/>
<path d="M113.782 20.1414H123.182V23.7276C123.182 24.503 123.057 25.1445 122.806 25.6522C122.556 26.1599 122.211 26.5384 121.772 26.7876C121.334 27.0368 120.841 27.1614 120.295 27.1614C119.776 27.1614 119.297 27.0415 118.858 26.8014C118.428 26.5614 118.079 26.1876 117.811 25.6799C117.551 25.1722 117.421 24.5215 117.421 23.7276V21.9138H113.782V20.1414ZM118.818 21.9138V23.6168C118.818 24.2353 118.948 24.6783 119.207 24.9461C119.476 25.223 119.838 25.3614 120.295 25.3614C120.761 25.3614 121.123 25.223 121.383 24.9461C121.651 24.6783 121.786 24.2353 121.786 23.6168V21.9138H118.818Z" fill="#2D70FD"/>
<path d="M112.506 27.1616C113.322 27.1616 113.983 26.4797 113.983 25.6385C113.983 24.7974 113.322 24.1154 112.506 24.1154C111.69 24.1154 111.029 24.7974 111.029 25.6385C111.029 26.4797 111.69 27.1616 112.506 27.1616Z" fill="#FFD166"/>
<path d="M120.295 17.9537C121.111 17.9537 121.772 17.2718 121.772 16.4306C121.772 15.5894 121.111 14.9075 120.295 14.9075C119.479 14.9075 118.818 15.5894 118.818 16.4306C118.818 17.2718 119.479 17.9537 120.295 17.9537Z" fill="#00D8A7"/>
<path d="M129.333 25.7076V16.0153H132.811C133.563 16.0153 134.185 16.1445 134.678 16.403C135.17 16.6614 135.537 17.0168 135.779 17.4691C136.021 17.9214 136.142 18.4291 136.142 18.9922C136.142 19.5276 136.025 20.0215 135.792 20.4738C135.56 20.9168 135.197 21.2768 134.705 21.5538C134.212 21.8215 133.581 21.9553 132.811 21.9553H131.052V25.7076H129.333ZM131.052 20.5153H132.704C133.303 20.5153 133.733 20.3815 133.993 20.1138C134.261 19.8368 134.396 19.463 134.396 18.9922C134.396 18.5122 134.261 18.1384 133.993 17.8707C133.733 17.5938 133.303 17.4553 132.704 17.4553H131.052V20.5153ZM137.114 25.7076V18.8399H138.645L138.806 20.1276C139.048 19.6845 139.375 19.3337 139.786 19.0753C140.207 18.8076 140.7 18.6738 141.264 18.6738V20.543H140.78C140.404 20.543 140.068 20.603 139.773 20.723C139.478 20.843 139.245 21.0507 139.075 21.3461C138.914 21.6415 138.833 22.0522 138.833 22.5784V25.7076H137.114ZM145.181 25.8738C144.536 25.8738 143.954 25.7215 143.435 25.4168C142.925 25.1122 142.518 24.6922 142.213 24.1568C141.918 23.6122 141.77 22.9846 141.77 22.2738C141.77 21.563 141.922 20.9399 142.227 20.4045C142.531 19.8599 142.938 19.4353 143.449 19.1307C143.968 18.8261 144.55 18.6738 145.194 18.6738C145.83 18.6738 146.403 18.8261 146.913 19.1307C147.433 19.4353 147.84 19.8599 148.135 20.4045C148.44 20.9399 148.592 21.563 148.592 22.2738C148.592 22.9846 148.44 23.6122 148.135 24.1568C147.84 24.6922 147.433 25.1122 146.913 25.4168C146.394 25.7215 145.817 25.8738 145.181 25.8738ZM145.181 24.3368C145.629 24.3368 146.018 24.166 146.349 23.8245C146.681 23.4737 146.846 22.9569 146.846 22.2738C146.846 21.5907 146.681 21.0784 146.349 20.7368C146.018 20.386 145.633 20.2107 145.194 20.2107C144.738 20.2107 144.344 20.386 144.013 20.7368C143.69 21.0784 143.529 21.5907 143.529 22.2738C143.529 22.9569 143.69 23.4737 144.013 23.8245C144.344 24.166 144.733 24.3368 145.181 24.3368ZM152.855 25.8738C152.228 25.8738 151.669 25.7168 151.176 25.403C150.684 25.0892 150.295 24.6599 150.008 24.1153C149.722 23.5707 149.578 22.9522 149.578 22.2599C149.578 21.5676 149.722 20.9537 150.008 20.4184C150.295 19.8737 150.684 19.4491 151.176 19.1445C151.669 18.8307 152.228 18.6738 152.855 18.6738C153.356 18.6738 153.795 18.7707 154.171 18.9645C154.547 19.1584 154.852 19.4307 155.084 19.7815V15.7384H156.803V25.7076H155.272L155.084 24.7245C154.869 25.0291 154.583 25.2969 154.225 25.5276C153.876 25.7584 153.419 25.8738 152.855 25.8738ZM153.218 24.323C153.773 24.323 154.225 24.1338 154.574 23.7553C154.932 23.3676 155.111 22.8738 155.111 22.2738C155.111 21.6737 154.932 21.1846 154.574 20.8061C154.225 20.4184 153.773 20.2245 153.218 20.2245C152.672 20.2245 152.219 20.4137 151.861 20.7922C151.503 21.1707 151.324 21.6599 151.324 22.2599C151.324 22.8599 151.503 23.3538 151.861 23.7415C152.219 24.1291 152.672 24.323 153.218 24.323ZM160.716 25.8738C159.883 25.8738 159.239 25.606 158.782 25.0707C158.334 24.5353 158.11 23.7507 158.11 22.7168V18.8399H159.816V22.5507C159.816 23.1414 159.932 23.5938 160.165 23.9076C160.398 24.2214 160.765 24.3784 161.266 24.3784C161.741 24.3784 162.13 24.203 162.435 23.8522C162.748 23.5014 162.905 23.0122 162.905 22.3845V18.8399H164.624V25.7076H163.106L162.972 24.5445C162.766 24.9507 162.466 25.2737 162.072 25.5138C161.687 25.7538 161.235 25.8738 160.716 25.8738ZM169.316 25.8738C168.635 25.8738 168.036 25.7215 167.516 25.4168C166.997 25.1122 166.585 24.6876 166.281 24.143C165.985 23.5984 165.838 22.9753 165.838 22.2738C165.838 21.5722 165.985 20.9492 166.281 20.4045C166.585 19.8599 166.997 19.4353 167.516 19.1307C168.036 18.8261 168.635 18.6738 169.316 18.6738C170.166 18.6738 170.883 18.9045 171.465 19.3661C172.046 19.8184 172.418 20.4461 172.579 21.2491H170.766C170.677 20.9168 170.498 20.6584 170.229 20.4738C169.969 20.2799 169.661 20.183 169.302 20.183C168.828 20.183 168.425 20.3676 168.094 20.7368C167.763 21.106 167.597 21.6184 167.597 22.2738C167.597 22.9292 167.763 23.4415 168.094 23.8107C168.425 24.1799 168.828 24.3645 169.302 24.3645C169.661 24.3645 169.969 24.2722 170.229 24.0876C170.498 23.903 170.677 23.6399 170.766 23.2984H172.579C172.418 24.0738 172.046 24.6968 171.465 25.1676C170.883 25.6384 170.166 25.8738 169.316 25.8738ZM176.645 25.7076C175.947 25.7076 175.387 25.5322 174.967 25.1815C174.546 24.8307 174.336 24.2076 174.336 23.3122V20.3215H173.194V18.8399H174.336L174.537 16.9984H176.055V18.8399H177.854V20.3215H176.055V23.3261C176.055 23.6584 176.122 23.8891 176.256 24.0184C176.399 24.1384 176.641 24.1984 176.981 24.1984H177.814V25.7076H176.645ZM182.06 25.8738C181.389 25.8738 180.793 25.7261 180.274 25.4307C179.754 25.1353 179.347 24.7199 179.052 24.1845C178.757 23.6492 178.609 23.0307 178.609 22.3291C178.609 21.6184 178.752 20.9861 179.039 20.4322C179.334 19.8784 179.737 19.4491 180.247 19.1445C180.766 18.8307 181.375 18.6738 182.074 18.6738C182.727 18.6738 183.304 18.8214 183.806 19.1168C184.307 19.4122 184.696 19.8184 184.974 20.3353C185.26 20.843 185.404 21.4107 185.404 22.0384C185.404 22.1399 185.399 22.2461 185.391 22.3568C185.391 22.4676 185.386 22.583 185.377 22.703H180.314C180.35 23.2384 180.529 23.6584 180.852 23.963C181.183 24.2676 181.581 24.4199 182.047 24.4199C182.396 24.4199 182.687 24.3415 182.92 24.1845C183.161 24.0184 183.34 23.806 183.457 23.5476H185.203C185.077 23.9815 184.867 24.3784 184.571 24.7384C184.285 25.0892 183.927 25.3661 183.497 25.5691C183.076 25.7722 182.597 25.8738 182.06 25.8738ZM182.074 20.1138C181.653 20.1138 181.281 20.2384 180.959 20.4876C180.637 20.7276 180.431 21.0968 180.341 21.5953H183.658C183.631 21.143 183.47 20.783 183.175 20.5153C182.879 20.2476 182.512 20.1138 182.074 20.1138ZM186.514 25.7076V18.8399H188.045L188.206 20.1276C188.448 19.6845 188.774 19.3337 189.186 19.0753C189.607 18.8076 190.1 18.6738 190.664 18.6738V20.543H190.18C189.804 20.543 189.468 20.603 189.173 20.723C188.878 20.843 188.645 21.0507 188.475 21.3461C188.313 21.6415 188.233 22.0522 188.233 22.5784V25.7076H186.514Z" fill="#2D70FD"/>
<path d="M25.1449 26V16.5455H28.3395C29.0812 16.5455 29.6875 16.6793 30.1584 16.9471C30.6323 17.2118 30.9832 17.5703 31.2109 18.0227C31.4387 18.4751 31.5526 18.9799 31.5526 19.5369C31.5526 20.094 31.4387 20.6003 31.2109 21.0558C30.9863 21.5112 30.6385 21.8744 30.1676 22.1452C29.6967 22.413 29.0935 22.5469 28.358 22.5469H26.0682V21.5312H28.321C28.8288 21.5312 29.2366 21.4435 29.5444 21.2681C29.8522 21.0927 30.0753 20.8557 30.2138 20.5572C30.3554 20.2556 30.4261 19.9155 30.4261 19.5369C30.4261 19.1584 30.3554 18.8198 30.2138 18.5213C30.0753 18.2228 29.8506 17.9889 29.5398 17.8196C29.2289 17.6473 28.8165 17.5611 28.3026 17.5611H26.2898V26H25.1449ZM36.3136 26.1477C35.6735 26.1477 35.1118 25.9954 34.6286 25.6907C34.1485 25.386 33.773 24.9598 33.5022 24.4119C33.2344 23.8641 33.1006 23.224 33.1006 22.4915C33.1006 21.7528 33.2344 21.1081 33.5022 20.5572C33.773 20.0063 34.1485 19.5785 34.6286 19.2738C35.1118 18.9691 35.6735 18.8168 36.3136 18.8168C36.9538 18.8168 37.5139 18.9691 37.994 19.2738C38.4772 19.5785 38.8527 20.0063 39.1204 20.5572C39.3913 21.1081 39.5267 21.7528 39.5267 22.4915C39.5267 23.224 39.3913 23.8641 39.1204 24.4119C38.8527 24.9598 38.4772 25.386 37.994 25.6907C37.5139 25.9954 36.9538 26.1477 36.3136 26.1477ZM36.3136 25.169C36.7999 25.169 37.2 25.0444 37.5139 24.7951C37.8278 24.5458 38.0602 24.218 38.211 23.8118C38.3618 23.4055 38.4372 22.9654 38.4372 22.4915C38.4372 22.0175 38.3618 21.5759 38.211 21.1665C38.0602 20.7572 37.8278 20.4264 37.5139 20.174C37.2 19.9216 36.7999 19.7955 36.3136 19.7955C35.8274 19.7955 35.4273 19.9216 35.1133 20.174C34.7994 20.4264 34.5671 20.7572 34.4163 21.1665C34.2654 21.5759 34.19 22.0175 34.19 22.4915C34.19 22.9654 34.2654 23.4055 34.4163 23.8118C34.5671 24.218 34.7994 24.5458 35.1133 24.7951C35.4273 25.0444 35.8274 25.169 36.3136 25.169ZM42.8151 26L40.6546 18.9091H41.7995L43.3321 24.3381H43.406L44.9202 18.9091H46.0836L47.5793 24.3196H47.6532L49.1858 18.9091H50.3307L48.1702 26H47.0992L45.5481 20.5526H45.4373L43.8861 26H42.8151ZM54.7629 26.1477C54.0796 26.1477 53.4903 25.9969 52.9948 25.6953C52.5023 25.3906 52.1222 24.9659 51.8545 24.4212C51.5898 23.8733 51.4575 23.2363 51.4575 22.5099C51.4575 21.7836 51.5898 21.1435 51.8545 20.5895C52.1222 20.0324 52.4946 19.5985 52.9717 19.2876C53.4518 18.9737 54.0119 18.8168 54.6521 18.8168C55.0214 18.8168 55.3861 18.8783 55.7462 19.0014C56.1063 19.1245 56.434 19.3246 56.7295 19.6016C57.0249 19.8755 57.2604 20.2386 57.4358 20.6911C57.6112 21.1435 57.6989 21.7005 57.6989 22.3622V22.8239H52.233V21.8821H56.591C56.591 21.482 56.511 21.125 56.3509 20.8111C56.194 20.4972 55.9693 20.2494 55.6769 20.0678C55.3876 19.8862 55.046 19.7955 54.6521 19.7955C54.2181 19.7955 53.8426 19.9032 53.5257 20.1186C53.2117 20.331 52.9701 20.608 52.8009 20.9496C52.6316 21.2912 52.547 21.6574 52.547 22.0483V22.6761C52.547 23.2116 52.6393 23.6656 52.8239 24.038C53.0117 24.4073 53.2717 24.6889 53.6041 24.8828C53.9365 25.0736 54.3228 25.169 54.7629 25.169C55.0491 25.169 55.3076 25.129 55.5384 25.049C55.7723 24.9659 55.9739 24.8428 56.1432 24.6797C56.3125 24.5135 56.4433 24.3073 56.5356 24.0611L57.5882 24.3565C57.4774 24.7135 57.2912 25.0275 57.0296 25.2983C56.768 25.5661 56.4448 25.7753 56.0601 25.9261C55.6754 26.0739 55.243 26.1477 54.7629 26.1477ZM59.6163 26V18.9091H60.6688V19.9801H60.7427C60.8719 19.6293 61.1058 19.3446 61.4444 19.1261C61.7829 18.9076 62.1646 18.7983 62.5893 18.7983C62.6693 18.7983 62.7693 18.7998 62.8893 18.8029C63.0094 18.806 63.1002 18.8106 63.1617 18.8168V19.9247C63.1248 19.9155 63.0401 19.9016 62.9078 19.8832C62.7785 19.8616 62.6416 19.8509 62.4969 19.8509C62.1522 19.8509 61.8445 19.9232 61.5736 20.0678C61.3059 20.2094 61.0935 20.4064 60.9366 20.6587C60.7827 20.908 60.7058 21.1927 60.7058 21.5128V26H59.6163ZM67.4704 26.1477C66.7871 26.1477 66.1978 25.9969 65.7023 25.6953C65.2098 25.3906 64.8297 24.9659 64.562 24.4212C64.2973 23.8733 64.165 23.2363 64.165 22.5099C64.165 21.7836 64.2973 21.1435 64.562 20.5895C64.8297 20.0324 65.2021 19.5985 65.6792 19.2876C66.1593 18.9737 66.7194 18.8168 67.3596 18.8168C67.7289 18.8168 68.0936 18.8783 68.4537 19.0014C68.8138 19.1245 69.1415 19.3246 69.437 19.6016C69.7324 19.8755 69.9679 20.2386 70.1433 20.6911C70.3187 21.1435 70.4064 21.7005 70.4064 22.3622V22.8239H64.9405V21.8821H69.2985C69.2985 21.482 69.2185 21.125 69.0584 20.8111C68.9015 20.4972 68.6768 20.2494 68.3844 20.0678C68.0951 19.8862 67.7535 19.7955 67.3596 19.7955C66.9256 19.7955 66.5501 19.9032 66.2331 20.1186C65.9192 20.331 65.6776 20.608 65.5084 20.9496C65.3391 21.2912 65.2545 21.6574 65.2545 22.0483V22.6761C65.2545 23.2116 65.3468 23.6656 65.5314 24.038C65.7192 24.4073 65.9792 24.6889 66.3116 24.8828C66.644 25.0736 67.0303 25.169 67.4704 25.169C67.7566 25.169 68.0151 25.129 68.2459 25.049C68.4798 24.9659 68.6814 24.8428 68.8507 24.6797C69.02 24.5135 69.1508 24.3073 69.2431 24.0611L70.2956 24.3565C70.1849 24.7135 69.9987 25.0275 69.7371 25.2983C69.4755 25.5661 69.1523 25.7753 68.7676 25.9261C68.3829 26.0739 67.9505 26.1477 67.4704 26.1477ZM75.0013 26.1477C74.4104 26.1477 73.8887 25.9985 73.4363 25.6999C72.9839 25.3983 72.63 24.9736 72.3745 24.4258C72.1191 23.8749 71.9914 23.224 71.9914 22.473C71.9914 21.7282 72.1191 21.0819 72.3745 20.5341C72.63 19.9863 72.9855 19.5631 73.4409 19.2646C73.8964 18.966 74.4227 18.8168 75.0198 18.8168C75.4814 18.8168 75.8461 18.8937 76.1139 19.0476C76.3847 19.1984 76.5909 19.3707 76.7325 19.5646C76.8771 19.7554 76.9895 19.9124 77.0695 20.0355H77.1618V16.5455H78.2513V26H77.1988V24.9105H77.0695C76.9895 25.0398 76.8756 25.2029 76.7279 25.3999C76.5802 25.5937 76.3693 25.7676 76.0954 25.9215C75.8215 26.0723 75.4568 26.1477 75.0013 26.1477ZM75.149 25.169C75.5861 25.169 75.9554 25.0552 76.257 24.8274C76.5586 24.5966 76.7879 24.2781 76.9449 23.8718C77.1018 23.4625 77.1803 22.9901 77.1803 22.4545C77.1803 21.9252 77.1034 21.462 76.9495 21.065C76.7956 20.6649 76.5678 20.354 76.2662 20.1325C75.9646 19.9078 75.5922 19.7955 75.149 19.7955C74.6874 19.7955 74.3027 19.9139 73.9949 20.1509C73.6902 20.3848 73.461 20.7034 73.3071 21.1065C73.1563 21.5066 73.0809 21.956 73.0809 22.4545C73.0809 22.9593 73.1578 23.4179 73.3117 23.8303C73.4686 24.2396 73.6995 24.5658 74.0042 24.8089C74.3119 25.049 74.6936 25.169 75.149 25.169ZM84.722 26V16.5455H85.8114V20.0355H85.9038C85.9838 19.9124 86.0946 19.7554 86.2362 19.5646C86.3808 19.3707 86.587 19.1984 86.8548 19.0476C87.1256 18.8937 87.4918 18.8168 87.9535 18.8168C88.5506 18.8168 89.0768 18.966 89.5323 19.2646C89.9878 19.5631 90.3433 19.9863 90.5987 20.5341C90.8542 21.0819 90.9819 21.7282 90.9819 22.473C90.9819 23.224 90.8542 23.8749 90.5987 24.4258C90.3433 24.9736 89.9894 25.3983 89.5369 25.6999C89.0845 25.9985 88.5629 26.1477 87.972 26.1477C87.5165 26.1477 87.1518 26.0723 86.8779 25.9215C86.6039 25.7676 86.3931 25.5937 86.2454 25.3999C86.0977 25.2029 85.9838 25.0398 85.9038 24.9105H85.7745V26H84.722ZM85.793 22.4545C85.793 22.9901 85.8715 23.4625 86.0284 23.8718C86.1854 24.2781 86.4147 24.5966 86.7163 24.8274C87.0179 25.0552 87.3872 25.169 87.8242 25.169C88.2797 25.169 88.6598 25.049 88.9645 24.8089C89.2723 24.5658 89.5031 24.2396 89.657 23.8303C89.8139 23.4179 89.8924 22.9593 89.8924 22.4545C89.8924 21.956 89.8155 21.5066 89.6616 21.1065C89.5108 20.7034 89.2815 20.3848 88.9737 20.1509C88.669 19.9139 88.2859 19.7955 87.8242 19.7955C87.381 19.7955 87.0087 19.9078 86.707 20.1325C86.4054 20.354 86.1777 20.6649 86.0238 21.065C85.8699 21.462 85.793 21.9252 85.793 22.4545ZM93.3562 28.6591C93.1716 28.6591 93.0069 28.6437 92.8623 28.6129C92.7176 28.5852 92.6176 28.5575 92.5622 28.5298L92.8392 27.5696C93.1039 27.6373 93.3378 27.6619 93.5409 27.6435C93.744 27.625 93.9241 27.5342 94.081 27.3711C94.2411 27.2111 94.3873 26.951 94.5196 26.5909L94.7227 26.0369L92.1006 18.9091H93.2824L95.2398 24.5597H95.3136L97.271 18.9091H98.4528L95.4429 27.0341C95.3075 27.4003 95.1397 27.7035 94.9397 27.9435C94.7396 28.1867 94.5073 28.3667 94.2426 28.4837C93.981 28.6006 93.6856 28.6591 93.3562 28.6591Z" fill="#405175"/>
</svg>
